<svg width="39" height="20" viewBox="0 0 39 20" fill="none" xmlns="http://www.w3.org/2000/svg">
    <g opacity="0.8">
        <path d="M10.1601 15.3631C6.99993 15.3631 4.47072 12.6171 4.83204 9.38639C5.10523 6.94002 7.06339 4.96423 9.508 4.67342C11.8521 4.39494 13.9495 5.64104 14.933 7.54985C14.9982 7.67499 15.1234 7.75606 15.2626 7.75606H19.3728C19.6196 7.75606 19.7958 7.51989 19.7288 7.28371C18.4916 2.93734 14.3655 -0.205233 9.56969 0.0732452C4.6364 0.358773 0.614329 4.31386 0.245963 9.24187C-0.187617 15.0652 4.42666 19.9439 10.1601 19.9439C14.7004 19.9439 18.5427 16.8841 19.7271 12.7158C19.7941 12.4796 19.6178 12.2417 19.3711 12.2417H15.2609C15.1199 12.2417 14.9947 12.3227 14.9295 12.4479C14.0377 14.1769 12.2329 15.3613 10.1584 15.3613L10.1601 15.3631Z"
              fill="#FF673A"/>
        <path d="M35.7235 10.059C34.8863 9.59725 33.8376 9.25179 32.5774 9.0209L27.9772 8.21367C27.244 8.04094 26.6412 7.85412 26.1706 7.65143C25.7 7.4505 25.3528 7.17555 25.1272 6.83009C24.9016 6.48464 24.7888 6.04225 24.7888 5.50468C24.7888 4.90895 24.9492 4.42425 25.2682 4.04884C25.5872 3.67342 26.1001 3.39142 26.8069 3.19754C27.5119 3.00543 28.439 2.91025 29.5864 2.91025C30.903 2.91025 31.9464 3.04068 32.7184 3.29977C33.4904 3.55886 34.0455 3.95366 34.384 4.48242C34.7224 5.01117 34.8916 5.66859 34.8916 6.45644V6.83185H37.9107V6.65913C37.9107 5.39011 37.6235 4.2621 37.0506 3.27157C36.4761 2.28279 35.5966 1.49847 34.4122 0.922129C33.2277 0.345785 31.712 0.0567322 29.8684 0.0567322C28.3826 0.0567322 27.1259 0.215359 26.1019 0.532612C25.0761 0.849866 24.2442 1.27816 23.6044 1.81573C22.9646 2.35329 22.494 2.9596 22.1944 3.63112C21.893 4.3044 21.7432 4.9865 21.7432 5.6774C21.7432 6.73492 21.9741 7.61441 22.4341 8.31413C22.8941 9.01561 23.5392 9.57257 24.3676 9.985C25.1959 10.3992 26.1354 10.7112 27.1893 10.9227L31.8177 11.6999C33.0021 11.9308 33.8587 12.2375 34.3857 12.6217C34.9127 13.006 35.1753 13.6211 35.1753 14.4671C35.1753 15.0628 35.0202 15.5581 34.71 15.9511C34.3998 16.3459 33.8869 16.6332 33.1713 16.8165C32.4558 16.9998 31.4969 17.0897 30.2931 17.0897C28.9008 17.0897 27.8098 16.9593 27.0201 16.7002C26.2305 16.4411 25.6665 16.0569 25.3264 15.5475C24.988 15.0381 24.8188 14.4001 24.8188 13.6317V13.1699H21.7714V13.3426C21.7714 14.6874 22.0904 15.856 22.7302 16.8447C23.37 17.8353 24.3253 18.5984 25.5943 19.136C26.865 19.6736 28.4302 19.9432 30.2931 19.9432C32.1561 19.9432 33.6701 19.6789 34.8369 19.1501C36.0037 18.6213 36.8585 17.9251 37.4049 17.0598C37.9495 16.1944 38.2227 15.2726 38.2227 14.2926C38.2227 13.3126 38.0147 12.5248 37.6023 11.8145C37.1881 11.1042 36.5624 10.5173 35.7252 10.0555L35.7235 10.059Z"
              fill="#111827"/>
    </g>
</svg>
