<svg width="246" height="48" viewBox="0 0 246 48" fill="none" xmlns="http://www.w3.org/2000/svg">
    <g opacity="0.8">
        <path d="M157.545 20.0045C155.87 19.0809 153.773 18.39 151.253 17.9282L142.052 16.3138C140.586 15.9683 139.38 15.5947 138.439 15.1893C137.498 14.7874 136.803 14.2375 136.352 13.5466C135.901 12.8557 135.675 11.9709 135.675 10.8958C135.675 9.70434 135.996 8.73495 136.634 7.98412C137.272 7.23328 138.298 6.66928 139.712 6.28153C141.122 5.8973 142.976 5.70694 145.271 5.70694C147.904 5.70694 149.991 5.9678 151.535 6.48598C153.079 7.00416 154.189 7.79377 154.866 8.85128C155.543 9.90879 155.881 11.2236 155.881 12.7993V13.5502H161.919V13.2047C161.919 10.6667 161.345 8.41065 160.199 6.42958C159.05 4.45203 157.291 2.88339 154.922 1.7307C152.553 0.578015 149.522 -9.15527e-05 145.835 -9.15527e-05C142.863 -9.15527e-05 140.35 0.317162 138.302 0.951669C136.25 1.58618 134.586 2.44276 133.307 3.5179C132.027 4.59303 131.086 5.80565 130.487 7.14868C129.884 8.49525 129.584 9.85944 129.584 11.2413C129.584 13.3563 130.046 15.1153 130.966 16.5147C131.886 17.9177 133.176 19.0316 134.833 19.8564C136.49 20.6848 138.369 21.3088 140.476 21.7318L149.733 23.2863C152.102 23.7481 153.815 24.3614 154.869 25.1299C155.923 25.8984 156.448 27.1286 156.448 28.8206C156.448 30.0121 156.138 31.0026 155.518 31.7887C154.897 32.5783 153.872 33.1529 152.44 33.5195C151.009 33.8861 149.092 34.0659 146.684 34.0659C143.899 34.0659 141.717 33.805 140.138 33.2868C138.559 32.7687 137.431 32.0002 136.751 30.9815C136.074 29.9627 135.735 28.6867 135.735 27.1497V26.2262H129.641V26.5716C129.641 29.2612 130.279 31.5983 131.558 33.5759C132.838 35.557 134.748 37.0833 137.286 38.1584C139.828 39.2336 142.958 39.7729 146.684 39.7729C150.41 39.7729 153.438 39.2442 155.772 38.1866C158.105 37.1291 159.815 35.7367 160.908 34.0059C161.997 32.2752 162.543 30.4316 162.543 28.4716C162.543 26.5117 162.127 24.936 161.302 23.5154C160.474 22.0948 159.223 20.921 157.548 19.9974L157.545 20.0045Z"
              fill="#111827"/>
        <path d="M176.093 8.0899H170.591V13.6982H166.269V18.3266H170.591V30.6219C170.591 33.7099 171.387 35.9201 172.984 37.2561C174.578 38.5921 176.749 39.2618 179.491 39.2618H185.357V34.2704H180.729C179.15 34.2704 177.986 34.006 177.232 33.4737C176.478 32.9414 176.1 31.8874 176.1 30.3117V18.3266H185.361V13.6982H176.1V8.0899H176.093Z"
              fill="#111827"/>
        <path d="M207.91 14.5446C206.18 13.6351 203.959 13.1804 201.248 13.1804C198.537 13.1804 196.214 13.6281 194.279 14.5164C192.34 15.4082 190.86 16.6173 189.831 18.1436C188.801 19.67 188.287 21.4114 188.287 23.3642V23.5687H193.789V23.3642C193.789 21.4783 194.371 20.1247 195.538 19.2999C196.704 18.4785 198.47 18.0661 200.836 18.0661C203.201 18.0661 205.045 18.4856 206.056 19.3281C207.068 20.167 207.572 21.6511 207.572 23.7767V25.2713L195.946 26.5015C194.265 26.706 192.809 27.069 191.575 27.5802C190.342 28.0948 189.39 28.8069 188.72 29.7163C188.05 30.6258 187.715 31.7468 187.715 33.0863C187.715 35.1801 188.495 36.8158 190.056 38.0002C191.618 39.1846 193.715 39.7733 196.359 39.7733C199.274 39.7733 201.699 39.1634 203.638 37.9473C205.577 36.7312 206.888 35.0391 207.572 32.8818H207.932V39.2586H213.025V23.7238C213.025 21.6652 212.606 19.8498 211.763 18.2705C210.921 16.6949 209.638 15.4505 207.903 14.5411L207.91 14.5446ZM202.947 35.018C201.505 35.515 199.81 35.7653 197.853 35.7653C196.274 35.7653 195.118 35.515 194.381 35.018C193.645 34.521 193.274 33.756 193.274 32.7302C193.274 31.7045 193.627 31.0241 194.328 30.5941C195.03 30.1675 196.102 29.8644 197.543 29.6952L207.576 28.5707C207.576 30.2486 207.163 31.6199 206.342 32.6809C205.52 33.7455 204.385 34.5245 202.947 35.0215V35.018Z"
              fill="#111827"/>
        <path d="M239.519 13.6945L233.502 27.2236L231.084 33.3959H230.672L228.151 27.2729L221.619 13.6909H215.394L228 39.2545L227.379 40.594C227.002 41.4506 226.53 42.0605 225.966 42.42C225.402 42.7796 224.552 42.9593 223.421 42.9593H218.429V48.0001H222.081C223.83 48.0001 225.338 47.8204 226.607 47.4608C227.876 47.1013 228.973 46.4844 229.9 45.6102C230.827 44.736 231.63 43.5445 232.318 42.0358L245.639 13.6909H239.516L239.519 13.6945Z"
              fill="#111827"/>
        <path d="M58.7661 39.1622C50.225 39.1622 43.2771 32.2144 43.2771 23.6732C43.2771 15.132 50.225 8.18417 58.7661 8.18417C67.3073 8.18417 74.2516 15.132 74.2516 23.6732C74.2516 32.2144 67.3038 39.1622 58.7661 39.1622ZM58.7661 15.3188C54.1589 15.3188 50.4118 19.066 50.4118 23.6732C50.4118 28.2804 54.1589 32.0275 58.7661 32.0275C63.3734 32.0275 67.1205 28.2804 67.1205 23.6732C67.1205 19.066 63.3734 15.3188 58.7661 15.3188Z"
              fill="#FF673A"/>
        <path d="M19.8848 30.614C13.5644 30.614 8.50602 25.122 9.22865 18.6606C9.77503 13.7679 13.6913 9.81629 18.5806 9.23466C23.2689 8.6777 27.4637 11.1699 29.4306 14.9875C29.5611 15.2378 29.8113 15.3999 30.0898 15.3999H38.3102C38.8037 15.3999 39.1562 14.9276 39.0223 14.4552C36.5477 5.76249 28.2956 -0.522648 18.704 0.0343078C8.83737 0.605364 0.793234 8.51555 0.0565013 18.3716C-0.810658 30.0183 8.41789 39.7756 19.8848 39.7756C28.9653 39.7756 36.6499 33.6561 39.0187 25.3194C39.1527 24.847 38.8002 24.3712 38.3067 24.3712H30.0863C29.8043 24.3712 29.554 24.5333 29.4236 24.7836C27.6399 28.2417 24.0303 30.6105 19.8813 30.6105L19.8848 30.614Z"
              fill="#FF673A"/>
        <path d="M118.921 8.73438H111.092V38.6161H118.921V8.73438Z" fill="#FF673A"/>
        <path d="M91.6442 28.4739C91.5385 28.4739 91.4327 28.4739 91.3305 28.4739L107.458 13.8978L103.079 8.09915L102.819 8.2613C99.3605 10.4222 95.5782 11.5149 91.5702 11.5149C84.8374 11.5149 79.7225 8.39526 79.5075 8.2613L79.2255 8.08505L75.3162 14.3032L75.5982 14.4795C75.8767 14.6557 82.3275 18.6637 91.0027 18.8576L74.8686 33.4406L79.2608 39.2288L79.5181 39.0666C79.571 39.0349 84.7351 35.8447 91.6019 35.8447C95.6099 35.8447 99.3817 36.9304 102.815 39.0772L103.097 39.2534L106.989 33.0212L106.707 32.8449C102.057 29.9403 96.9846 28.4668 91.6372 28.4668L91.6442 28.4739Z"
              fill="#FF673A"/>
    </g>
</svg>
